<svg xmlns="http://www.w3.org/2000/svg" viewBox="0 0 612.02 612.02"><path d="M15.058 342.345l254.58 254.58c20.078 20.079 52.643 20.079 72.722 0 20.08-20.079 20.08-52.644 0-72.723L124.167 306.009 342.36 87.817c20.079-20.079 20.079-52.644 0-72.723s-52.645-20.079-72.723 0L15.058 269.673c-20.078 20.03-20.078 52.593 0 72.672zm306.102 15.416l202.114 213.02c20.31 21.378 53.205 21.378 73.513 0 20.31-21.378 20.31-56.058 0-77.462L431.417 319.03l165.37-174.289c20.31-21.379 20.31-56.083 0-77.462-20.308-21.379-53.204-21.379-73.513 0L321.16 280.3c-20.308 21.378-20.308 56.058 0 77.462z" fill="#222"/></svg>