<svg version="1.1" id="Capa_1" xmlns="http://www.w3.org/2000/svg" x="0" y="0" viewBox="0 0 76 76" xml:space="preserve"><style>.st1{fill:#222}</style><circle cx="38" cy="38" r="38" fill="#ffc224"/><path class="st1" d="M56.35 23.383h-38.7c-1.218 0-2.15.932-2.15 2.15v14.334c0 1.218.932 2.15 2.15 2.15h38.7c1.218 0 2.15-.932 2.15-2.15V25.533c0-1.218-.932-2.15-2.15-2.15zm.717 16.484c0 .43-.287.716-.717.716h-38.7c-.43 0-.717-.286-.717-.716V25.533c0-.43.359-.716.717-.716h38.7c.43 0 .717.286.717.716v14.334z" transform="translate(1 1)"/><path class="st1" d="M34.133 29.833h5.734c.43 0 .716-.286.716-.716s-.286-.717-.716-.717h-5.734c-.43 0-.716.287-.716.717s.286.716.716.716zm20.784 7.884H19.083c-.43 0-.716.286-.716.716s.286.717.716.717h35.834c.43 0 .716-.287.716-.717s-.286-.716-.716-.716zm0-2.867H19.083c-.43 0-.716.287-.716.717s.286.716.716.716h35.834c.43 0 .716-.286.716-.716s-.286-.717-.716-.717zM37.358 47.105c-.716-.358-1.075-.788-1.075-1.147 0-.358.43-.788 1.004-1.218.358-.143.43-.573.286-.932-.143-.358-.573-.501-.931-.286-1.147.645-1.792 1.505-1.792 2.436 0 .932.645 1.792 1.792 2.509.716.358 1.075.788 1.075 1.146s-.43.789-1.075 1.147c-.359.143-.502.573-.287.932a.753.753 0 0 0 .645.358c.143 0 .215 0 .358-.072 1.147-.645 1.792-1.505 1.792-2.436 0-.932-.645-1.864-1.792-2.437zm-7.883 1.433c-.717-.358-1.075-.788-1.075-1.146s.43-.789 1.003-1.219c.359-.143.502-.573.287-.931-.143-.359-.573-.502-.932-.287-1.146.645-1.791 1.505-1.791 2.437 0 .931.645 1.791 1.791 2.508.717.358 1.075.788 1.075 1.147s-.43.788-1.075 1.146c-.358.144-.501.574-.286.932a.753.753 0 0 0 .645.358c.143 0 .215 0 .358-.071 1.147-.645 1.792-1.505 1.792-2.437 0-.932-.645-1.863-1.792-2.437zm15.767 0c-.717-.358-1.075-.788-1.075-1.146s.43-.789 1.003-1.219c.358-.143.43-.573.287-.931-.144-.359-.574-.502-.932-.287-1.147.645-1.792 1.505-1.792 2.437 0 .931.645 1.791 1.792 2.508.717.358 1.075.788 1.075 1.147s-.43.788-1.075 1.146c-.358.144-.502.574-.287.932a.753.753 0 0 0 .645.358c.144 0 .215 0 .359-.071 1.147-.645 1.791-1.505 1.791-2.437 0-.932-.645-1.863-1.791-2.437z" transform="translate(1 1)"/></svg>