<svg version="1.1" id="Capa_1" xmlns="http://www.w3.org/2000/svg" x="0" y="0" viewBox="0 0 245 245" xml:space="preserve"><style>.st0{fill:#fff}</style><path class="st0" d="M122.5 39.6l95.2 84.2c6.2 6.2 16.4 6.2 22.6 0 6.2-6.2 6.2-16.4 0-22.6L134 7.2c-3.2-3.2-7.3-4.7-11.5-4.6-4.2 0-8.4 1.5-11.5 4.6l-106.3 94c-6.2 6.2-6.2 16.4 0 22.6 6.2 6.2 16.4 6.2 22.6 0l95.2-84.2z"/><path class="st0" d="M122.5 153.6l95.2 84.2c6.3 6.3 16.4 6.3 22.6.1 6.2-6.2 6.2-16.4 0-22.6l-106.3-94c-3.2-3.2-7.3-4.7-11.5-4.6-4.2 0-8.4 1.5-11.5 4.6l-106.3 94c-6.2 6.3-6.2 16.4 0 22.6 6.2 6.3 16.4 6.3 22.6 0l95.2-84.3z"/></svg>