<svg version="1.1" id="Layer_1" xmlns="http://www.w3.org/2000/svg" x="0" y="0" viewBox="0 0 39.875 39.875" xml:space="preserve"><style>.st1{fill:#222}</style><circle cx="20" cy="19.875" r="20" fill="#ffc224"/><path class="st1" d="M28.303 11.474H11.66a2.696 2.696 0 0 0-2.693 2.693V25.54a2.696 2.696 0 0 0 2.693 2.694h16.638a2.696 2.696 0 0 0 2.693-2.694V14.17a2.693 2.693 0 0 0-2.688-2.697zm1.463 14.067c0 .807-.657 1.463-1.463 1.463H11.66a1.465 1.465 0 0 1-1.463-1.463v-11.37c0-.806.656-1.462 1.463-1.462h16.638c.807 0 1.463.656 1.463 1.462v11.37h.005z"/><path class="st1" d="M22.857 19.713l5.387-4.83a.618.618 0 0 0 .045-.871.618.618 0 0 0-.87-.046l-7.428 6.667-1.45-1.294c-.004-.004-.009-.009-.009-.013a.911.911 0 0 0-.1-.087l-5.897-5.277a.614.614 0 0 0-.87.05.614.614 0 0 0 .05.87l5.45 4.872-5.427 5.081a.618.618 0 0 0 .843.902l5.51-5.154 1.494 1.336a.615.615 0 0 0 .82-.005l1.536-1.376 5.478 5.204a.615.615 0 0 0 .848-.893l-5.41-5.136z"/></svg>