<svg xmlns="http://www.w3.org/2000/svg" viewBox="0 0 512 512"><path d="M383.979.11L317.584.002c-74.591 0-122.796 49.456-122.796 126.002V184.1h-66.756c-5.769 0-10.44 4.676-10.44 10.445v84.174c0 5.769 4.677 10.44 10.44 10.44h66.756v212.397c0 5.769 4.672 10.44 10.44 10.44h87.098c5.769 0 10.44-4.676 10.44-10.44V289.16h78.054c5.769 0 10.44-4.671 10.44-10.44l.032-84.174c0-2.77-1.103-5.422-3.058-7.382a10.441 10.441 0 0 0-7.387-3.063h-78.08v-49.249c0-23.67 5.64-35.687 36.475-35.687l44.726-.016c5.763 0 10.435-4.676 10.435-10.44V10.55c0-5.758-4.666-10.43-10.424-10.44z" fill="#ffc224"/></svg>