<svg xmlns="http://www.w3.org/2000/svg" viewBox="0 0 512 512"><path d="M492.672 19.336C479.782 6.444 464.336 0 446.34 0H65.67c-18 0-33.442 6.446-46.335 19.336C6.445 32.224.001 47.668.001 65.665v380.667c0 17.995 6.443 33.442 19.334 46.33C32.228 505.552 47.673 512 65.671 512h380.665c17.992 0 33.443-6.448 46.332-19.338 12.893-12.888 19.33-28.335 19.33-46.33V65.665c0-18.001-6.437-33.437-19.326-46.329zM183.84 184.497c20.11-19.441 44.277-29.167 72.5-29.167 28.44 0 52.717 9.726 72.83 29.167 20.115 19.446 30.166 42.948 30.166 70.502 0 27.552-10.051 51.055-30.165 70.494-20.114 19.45-44.382 29.174-72.831 29.174-28.222 0-52.387-9.732-72.5-29.174-20.114-19.441-30.17-42.942-30.17-70.494 0-27.554 10.056-51.055 30.17-70.502zM454.008 432.67c0 5.774-2.006 10.605-6.002 14.496-4.008 3.888-8.779 5.833-14.34 5.833H77.34c-5.777 0-10.614-1.945-14.5-5.833-3.89-3.883-5.835-8.722-5.835-14.496V216.663h46.999c-4.443 14.002-6.664 28.56-6.664 43.667 0 42.677 15.553 79.059 46.664 109.176 31.115 30.106 68.558 45.166 112.336 45.166 28.889 0 55.554-6.892 80.006-20.669 24.445-13.785 43.766-32.502 57.998-56.171 14.224-23.668 21.335-49.503 21.335-77.5 0-15.108-2.23-29.663-6.672-43.668h45.004v216.008h-.002v-.002zm0-297.674c0 6.444-2.222 11.89-6.673 16.333-4.443 4.447-9.885 6.668-16.333 6.668h-57.998c-6.441 0-11.89-2.222-16.333-6.668-4.444-4.443-6.665-9.889-6.665-16.333V80c0-6.223 2.221-11.611 6.665-16.168 4.443-4.554 9.893-6.835 16.333-6.835h57.998c6.448 0 11.891 2.28 16.333 6.835 4.45 4.557 6.673 9.945 6.673 16.168v54.995z" fill="#ffc224"/></svg>