<svg version="1.1" id="Capa_1" xmlns="http://www.w3.org/2000/svg" x="0" y="0" viewBox="0 0 76 76" xml:space="preserve"><style>.st1{fill:#222}</style><circle cx="38" cy="38" r="38" fill="#ffc224"/><path class="st1" d="M43.22 19.468c-6.383 0-11.576 5.194-11.576 11.577 0 1.42.252 2.798.75 4.108l-11.07 11.07a.844.844 0 0 0-.247.597v6.057c0 .466.378.844.844.844h4.992a.844.844 0 0 0 .596-.247l1.682-1.68a.844.844 0 0 0 .248-.597v-2.065h2.063a.844.844 0 0 0 .843-.844v-.827h.827a.844.844 0 0 0 .844-.843v-1.816h1.815a.844.844 0 0 0 .597-.247l2.684-2.684c1.31.498 2.689.75 4.109.75 6.383 0 11.577-5.193 11.577-11.576 0-6.383-5.194-11.577-11.577-11.577zm0 21.467a9.814 9.814 0 0 1-3.969-.83.844.844 0 0 0-.928.17l-.008.006-2.833 2.834h-2.31a.844.844 0 0 0-.843.844v1.815h-.827a.844.844 0 0 0-.844.844v.826h-2.063a.844.844 0 0 0-.844.844v2.56l-1.187 1.185h-3.8v-1.192L33.078 40.53a.76.76 0 1 0-1.074-1.074l-9.238 9.238V47.17l11.219-11.22.006-.007a.844.844 0 0 0 .17-.928 9.821 9.821 0 0 1-.828-3.969c0-5.453 4.436-9.89 9.889-9.89s9.89 4.437 9.89 9.89-4.437 9.89-9.89 9.89z"/><path class="st1" d="M46.744 24.362a3.164 3.164 0 0 0-3.16 3.16c0 1.742 1.417 3.16 3.16 3.16s3.16-1.418 3.16-3.16a3.164 3.164 0 0 0-3.16-3.16zm0 4.632c-.812 0-1.473-.66-1.473-1.472s.66-1.473 1.473-1.473a1.474 1.474 0 0 1 0 2.945z"/></svg>