<svg xmlns="http://www.w3.org/2000/svg" viewBox="0 0 76 76"><circle cx="38" cy="38" r="38" fill="#ffc224"/><path d="M50.611 24.105h-.036c-.37-1.966-4.33-3.9-10.762-3.9s-10.394 1.934-10.763 3.9h-.037c0 .058.013.113.016.169-.003.044-.015.088-.015.131v5.06l-1.648-1.647c-.01-.011-.025-.02-.037-.03-.012-.013-.021-.028-.034-.04l-.007.007c-.76-.606-3.07-.604-4.698 1.026-1.6 1.6-2.409 4.606-1.788 5.46l-.011.012c.014.014.032.024.047.038.008.01.014.023.023.032l8.152 8.152v9.827c0 2.405 4.138 3.9 10.8 3.9s10.798-1.495 10.798-3.9V24.405c0-.043-.013-.087-.016-.131.004-.056.016-.111.016-.169zm-10.798-2.7c6.468 0 9.351 1.972 9.576 2.886-.225 1.534-3.238 3.114-9.576 3.114s-9.352-1.58-9.577-3.114c.225-.914 3.108-2.885 9.577-2.885zM23.439 29.63c1.255-1.255 2.735-1.1 3.04-.98.19.242.196.683.001 1.24-.249.714-.792 1.525-1.49 2.223-1.322 1.322-2.625 1.716-3.209 1.382-.033-.574.4-2.608 1.658-3.865zm22.973 24.685v-2.912a.6.6 0 0 0-1.2 0v3c0 .062.018.118.035.175a23.96 23.96 0 0 1-2.435.309v-5.283a.6.6 0 0 0-1.2 0v5.356c-.383.017-.783.029-1.2.035v-1.192a.6.6 0 0 0-1.2 0v1.192a38.917 38.917 0 0 1-1.8-.062v-4.13a.6.6 0 0 0-1.199 0v4.033c-1.2-.122-2.189-.304-3-.521v-7.711a.6.6 0 0 0-1.2 0v7.315c-1.255-.513-1.8-1.119-1.8-1.616V42.226a.598.598 0 0 0-.175-.424l-7.072-7.071c.908-.215 1.917-.815 2.872-1.77.834-.835 1.464-1.785 1.775-2.677.048-.137.087-.272.119-.404l1.458 1.458a.6.6 0 0 0 1.024-.424v-4.508c.47.39 1.075.733 1.8 1.027v4.771a.6.6 0 0 0 1.2 0v-4.367c.551.157 1.152.29 1.8.4v8.167a.6.6 0 0 0 1.2 0V28.41a31.49 31.49 0 0 0 3.599.195c.205 0 .4-.007.6-.01v1.81a.6.6 0 0 0 1.2 0v-1.85a25.964 25.964 0 0 0 3-.317v8.766a.6.6 0 0 0 1.199 0v-9l-.002-.01c.424-.102.83-.212 1.202-.338v4.548a.6.6 0 0 0 1.2 0v-5.042a6.11 6.11 0 0 0 1.2-.756v25.896c0 .633-.88 1.444-3 2.012z" fill="#222"/></svg>