<svg version="1.1" id="Capa_1" xmlns="http://www.w3.org/2000/svg" x="0" y="0" viewBox="0 0 76 76" xml:space="preserve"><style>.st1{display:none}.st2{display:inline}.st3{fill:#222}</style><circle cx="38" cy="38" r="38" fill="#ffc224"/><g class="st1"><g class="st2"><path class="st3" d="M50.33 17.913a5.63 5.63 0 0 0-5.623 5.624 5.63 5.63 0 0 0 3.146 5.047v1.875a1.22 1.22 0 0 0 1.218 1.218h.67v.04a.589.589 0 1 0 1.178 0v-.04h.67a1.22 1.22 0 0 0 1.218-1.218v-1.875a5.63 5.63 0 0 0 3.146-5.047 5.63 5.63 0 0 0-5.623-5.624zm1.299 12.546a.04.04 0 0 1-.04.04H49.07a.04.04 0 0 1-.04-.04v-1.452a5.617 5.617 0 0 0 2.598 0v1.452zm-2.268-5.704h1.938l-.823 3.224c-.049.001-.097.003-.146.003-.05 0-.098-.002-.146-.003l-.823-3.224zm2.39 2.993l1.037-4.066a.589.589 0 1 0-1.14-.29l-.048.186h-2.54l-.049-.187a.589.589 0 0 0-1.14.291l1.038 4.066a4.453 4.453 0 0 1-3.026-4.211 4.45 4.45 0 0 1 4.446-4.446 4.45 4.45 0 0 1 4.446 4.446 4.452 4.452 0 0 1-3.026 4.211z"/></g></g><g class="st1"><g class="st2"><path class="st3" d="M40.257 46.25l-5.301-2.342a.67.67 0 0 1-.4-.613v-2.024a6.912 6.912 0 0 0 2.844-3.754 8.753 8.753 0 0 0 2.191-5.8 8.776 8.776 0 0 0-4.453-7.63 3.25 3.25 0 0 0 .048-.55c0-2.06-1.958-3.736-4.365-3.736s-4.365 1.676-4.365 3.736c0 .184.018.367.05.549a8.776 8.776 0 0 0-4.455 7.632c0 2.143.778 4.196 2.192 5.8a6.912 6.912 0 0 0 2.843 3.753v2.024a.67.67 0 0 1-.4.613l-5.3 2.342a3.107 3.107 0 0 0-1.852 2.84v4.025a.589.589 0 0 0 1.178 0V49.09a1.93 1.93 0 0 1 1.149-1.764l3.366-1.487a6.245 6.245 0 0 0 5.594 3.458 6.231 6.231 0 0 0 5.595-3.458l3.365 1.487c.699.308 1.15 1 1.15 1.764v4.023a.589.589 0 1 0 1.177 0V49.09c0-1.23-.726-2.345-1.85-2.841zm-9.436-25.271c1.757 0 3.187 1.147 3.187 2.558v.01c-.988-.386-2.063-.599-3.187-.599s-2.198.213-3.187.6v-.011c0-1.41 1.43-2.558 3.187-2.558zm-5.704 14.515V35a.64.64 0 0 1 .335-.554c.736-.424 1.707-1.21 2.152-2.543a.589.589 0 1 0-1.117-.372c-.328.982-1.063 1.572-1.622 1.894-.55.316-.898.887-.923 1.503a7.576 7.576 0 0 1-.713-3.211c0-4.187 3.406-7.592 7.592-7.592s7.592 3.406 7.592 7.592c0 1.118-.247 2.21-.71 3.204v-.532c0-.718-.305-1.395-.837-1.857-1.183-1.03-3.861-2.825-8.504-3.289a.588.588 0 1 0-.117 1.172c4.318.432 6.77 2.068 7.848 3.005.275.24.432.592.432.969v1.104a5.71 5.71 0 0 1-5.704 5.704 5.71 5.71 0 0 1-5.704-5.704zM30.82 48.12a5.07 5.07 0 0 1-4.516-2.757l.857-.379a1.848 1.848 0 0 0 1.101-1.69v-1.413c.791.318 1.655.494 2.558.494s1.767-.176 2.558-.494v1.413c0 .731.432 1.395 1.1 1.69l.858.379a5.057 5.057 0 0 1-4.516 2.757z"/></g></g><g class="st1"><g class="st2"><path class="st3" d="M24.528 50.008a.589.589 0 0 0-.589.59v2.517a.589.589 0 0 0 1.178 0v-2.518a.589.589 0 0 0-.589-.589z"/></g></g><g class="st1"><g class="st2"><path class="st3" d="M37.114 50.008a.589.589 0 0 0-.588.59v2.517a.589.589 0 0 0 1.177 0v-2.518a.589.589 0 0 0-.589-.589z"/></g></g><g class="st1"><g class="st2"><path class="st3" d="M57.252 19.801a.589.589 0 1 0 0 1.178 1.3 1.3 0 0 1 1.3 1.3v10.068a1.3 1.3 0 0 1-1.3 1.3H50.96a.588.588 0 0 0-.346.112L45 37.84l.866-3.462a.589.589 0 0 0-.572-.732h-1.888a1.3 1.3 0 0 1-1.299-1.299V22.278a1.3 1.3 0 0 1 1.3-1.299.589.589 0 1 0 0-1.178 2.48 2.48 0 0 0-2.477 2.477v10.07a2.48 2.48 0 0 0 2.476 2.476h1.134l-.865 3.463a.895.895 0 0 0 .37.968.901.901 0 0 0 1.037-.018l6.068-4.413h6.101a2.48 2.48 0 0 0 2.477-2.477V22.278a2.48 2.48 0 0 0-2.477-2.477z"/></g></g><path class="st3" d="M49.625 19.44a5.611 5.611 0 0 0-5.605 5.605 5.61 5.61 0 0 0 3.136 5.03v1.87c0 .67.545 1.214 1.215 1.214h.667v.04a.587.587 0 1 0 1.174 0v-.04h.667c.67 0 1.215-.545 1.215-1.214v-1.87a5.61 5.61 0 0 0 3.136-5.03 5.611 5.611 0 0 0-5.605-5.604zm1.295 12.505a.04.04 0 0 1-.04.04h-2.51a.04.04 0 0 1-.04-.04v-1.448a5.598 5.598 0 0 0 2.59 0v1.448zm-2.261-5.685h1.932l-.82 3.213c-.049.001-.097.003-.146.003-.049 0-.097-.002-.146-.003l-.82-3.213zm2.381 2.983l1.035-4.052a.587.587 0 1 0-1.137-.29l-.047.185h-2.532l-.047-.186a.587.587 0 0 0-1.137.29l1.034 4.053a4.438 4.438 0 0 1-3.015-4.198 4.436 4.436 0 0 1 4.43-4.43 4.436 4.436 0 0 1 4.432 4.43 4.438 4.438 0 0 1-3.016 4.198zm-11.454 18.44l-5.284-2.334a.668.668 0 0 1-.398-.61V42.72a6.89 6.89 0 0 0 2.834-3.742 8.724 8.724 0 0 0 2.184-5.78 8.746 8.746 0 0 0-4.438-7.606 3.24 3.24 0 0 0 .047-.548c0-2.052-1.951-3.723-4.35-3.723s-4.35 1.67-4.35 3.723c0 .184.017.367.048.548a8.747 8.747 0 0 0-4.439 7.606c0 2.136.775 4.183 2.185 5.78a6.89 6.89 0 0 0 2.833 3.742v2.017a.668.668 0 0 1-.398.611l-5.284 2.334a3.097 3.097 0 0 0-1.845 2.832v4.01a.587.587 0 0 0 1.174 0v-4.01c0-.761.45-1.451 1.145-1.759l3.356-1.481a6.225 6.225 0 0 0 5.575 3.446 6.21 6.21 0 0 0 5.576-3.446l3.354 1.481a1.923 1.923 0 0 1 1.146 1.759v4.01a.587.587 0 1 0 1.174 0v-4.01a3.097 3.097 0 0 0-1.845-2.832zM30.18 22.496c1.751 0 3.176 1.144 3.176 2.55v.01c-.985-.385-2.056-.597-3.176-.597s-2.191.212-3.176.597v-.01c0-1.406 1.424-2.55 3.176-2.55zm-5.685 14.467v-.491a.64.64 0 0 1 .334-.553c.734-.422 1.701-1.205 2.144-2.534a.587.587 0 1 0-1.113-.371c-.327.98-1.06 1.567-1.617 1.888a1.826 1.826 0 0 0-.92 1.498 7.551 7.551 0 0 1-.71-3.2c0-4.173 3.394-7.568 7.567-7.568s7.567 3.395 7.567 7.567a7.56 7.56 0 0 1-.708 3.194v-.53c0-.716-.304-1.39-.834-1.851-1.18-1.026-3.849-2.815-8.476-3.278a.587.587 0 1 0-.116 1.168c4.303.43 6.748 2.061 7.822 2.995.273.238.43.59.43.965v1.1a5.692 5.692 0 0 1-5.685 5.686 5.692 5.692 0 0 1-5.685-5.685zm5.685 12.585a5.053 5.053 0 0 1-4.5-2.748l.854-.377a1.842 1.842 0 0 0 1.098-1.685V43.33a6.823 6.823 0 0 0 2.549.492c.9 0 1.76-.175 2.55-.492v1.408c0 .73.43 1.39 1.096 1.685l.855.377a5.04 5.04 0 0 1-4.501 2.748z"/><path class="st3" d="M23.909 51.43a.587.587 0 0 0-.587.586v2.509a.587.587 0 0 0 1.174 0v-2.509a.587.587 0 0 0-.587-.587zm12.544 0a.587.587 0 0 0-.587.586v2.509a.587.587 0 0 0 1.174 0v-2.509a.587.587 0 0 0-.587-.587zm20.071-30.108a.587.587 0 1 0 0 1.174c.714 0 1.295.581 1.295 1.295v10.036c0 .714-.58 1.294-1.295 1.294h-6.272a.586.586 0 0 0-.345.113L44.314 39.3l.863-3.45a.587.587 0 0 0-.57-.73h-1.882c-.714 0-1.294-.58-1.294-1.294V23.79c0-.714.58-1.295 1.294-1.295a.587.587 0 1 0 0-1.173 2.471 2.471 0 0 0-2.468 2.468v10.036a2.471 2.471 0 0 0 2.468 2.468h1.13l-.862 3.451a.892.892 0 0 0 .37.965.898.898 0 0 0 1.033-.018l6.047-4.398h6.081a2.471 2.471 0 0 0 2.469-2.468V23.79a2.471 2.471 0 0 0-2.469-2.469z"/></svg>