<svg version="1.1" id="Layer_1" xmlns="http://www.w3.org/2000/svg" x="0" y="0" viewBox="0 0 39.875 39.875" xml:space="preserve"><style>.st1{fill:#222}</style><circle cx="20" cy="19.875" r="20" fill="#ffc224"/><path class="st1" d="M20 6.284c-5.428 0-9.844 4.416-9.844 9.844 0 6.737 8.81 16.626 9.184 17.044a.887.887 0 0 0 1.32 0c.375-.418 9.184-10.307 9.184-17.044 0-5.428-4.416-9.844-9.844-9.844zm0 24.938c-2.965-3.522-8.071-10.47-8.071-15.094 0-4.45 3.62-8.071 8.071-8.071s8.071 3.62 8.071 8.071c0 4.624-5.105 11.57-8.071 15.094z"/><path class="st1" d="M20 11.176c-2.731 0-4.953 2.221-4.953 4.952S17.27 21.081 20 21.081s4.953-2.222 4.953-4.953S22.73 11.176 20 11.176zm0 8.132c-1.754 0-3.18-1.426-3.18-3.18s1.427-3.18 3.18-3.18 3.18 1.427 3.18 3.18-1.427 3.18-3.18 3.18z"/></svg>