<svg version="1.1" id="Capa_1" xmlns="http://www.w3.org/2000/svg" x="0" y="0" viewBox="0 0 76 76" xml:space="preserve"><style>.st1{fill:#222}</style><circle cx="38" cy="38" r="38" fill="#ffc224"/><path class="st1" d="M54.285 23.723L42.958 17.59c-1.074-.582-2.552-.135-3.134.94l-6.626 12.31H25.14c-1.03 0-1.836.806-1.836 1.836V52.6c0 1.029.806 1.835 1.836 1.835h25.742c1.03 0 1.836-.806 1.836-1.836v-4.656h.761a.707.707 0 0 0 .716-.716v-5.328a.707.707 0 0 0-.716-.716h-.761v-5.238c0-.85-.627-1.612-1.433-1.79l3.94-7.298a2.347 2.347 0 0 0-.94-3.134zm-8.059-2.731l-7.073 13.117h-2.015l7.566-13.923 1.522.806zm-5.103-1.79c.223-.404.76-.583 1.164-.359l1.119.627-7.88 14.64h-2.462l8.059-14.91zm-16.43 13.43c0-.134.178-.358.402-.358h7.298l-.985 1.79h-6.313c-.134 0-.268 0-.403.045v-1.477zM51.24 52.6c0 .224-.18.403-.403.403H25.095a.401.401 0 0 1-.403-.403V35.945c0-.224.18-.403.403-.403h25.697c.225 0 .404.18.404.403v5.238h-2.731a2.15 2.15 0 0 0-2.15 2.149v2.462a2.15 2.15 0 0 0 2.15 2.15h2.776v4.655zm1.432-9.983h.045v3.895h-4.253a.707.707 0 0 1-.716-.717v-2.462c0-.403.313-.716.716-.716h4.208zm1.254-16.475l-4.298 7.968h-8.865l6.716-12.4 6.089 3.312c.447.18.582.717.358 1.12z"/><path class="st1" d="M51.196 27.243l-.358-.179c-.896-.492-2.105-.134-2.597.761l-.448.851c-.224.448-.313.985-.134 1.477.134.493.492.896.94 1.12l.358.179c.269.134.582.224.896.224.716 0 1.343-.403 1.701-.985l.448-.851c.447-.94.09-2.104-.806-2.597zm-.493 1.925l-.447.851a.508.508 0 0 1-.672.18l-.358-.225c-.09-.044-.18-.179-.224-.268-.045-.135-.045-.269.045-.358l.448-.851c.09-.134.268-.269.447-.269a.4.4 0 0 1 .224.045l.358.18c.18.178.269.447.18.715z"/></svg>