<svg version="1.1" id="Layer_1" xmlns="http://www.w3.org/2000/svg" x="0" y="0" viewBox="0 0 39.875 39.875" xml:space="preserve"><style>.st1{fill:#222}</style><circle cx="20" cy="19.875" r="20" fill="#ffc224"/><path class="st1" d="M27.65 30.241V9.205a1.936 1.936 0 0 0-1.934-1.933H14.582a1.936 1.936 0 0 0-1.933 1.933v21.041c0 1.064.865 1.934 1.933 1.934h11.134a1.944 1.944 0 0 0 1.934-1.939zM13.895 11.755h12.503V25.91H13.895V11.755zm.687-3.237h11.134c.377 0 .687.306.687.687v1.303H13.895V9.205c0-.381.31-.687.687-.687zm-.687 21.723v-3.089h12.503v3.09a.687.687 0 0 1-.687.686H14.582a.687.687 0 0 1-.687-.687z"/><path class="st1" d="M21.411 28.47h-2.529a.625.625 0 1 0 0 1.252h2.53a.625.625 0 1 0 0-1.252z"/></svg>