<svg xmlns="http://www.w3.org/2000/svg" viewBox="0 0 76 76"><circle cx="38" cy="38" r="38" fill="#ffc224"/><path d="M59.187 44.656l-2.678-.765a.272.272 0 0 1-.197-.26v-.894c.218-.151.426-.32.62-.509a4.771 4.771 0 0 0 1.46-3.452v-1.234l.26-.517a4.138 4.138 0 0 0 .434-1.841v-3.342a.649.649 0 0 0-.648-.649h-6.241a4.12 4.12 0 0 0-4.116 4.116v.039c0 .528.125 1.057.36 1.53l.333.664v1.06a5.06 5.06 0 0 0 2.08 4.091v.937c0 .145 0 .205-.535.358l-1.307.373-3.78-1.375a.648.648 0 0 0-.177-.496l-1.209-1.27v-2.13a7.612 7.612 0 0 0 2.774-5.861v-1.702a7.497 7.497 0 0 0 .694-3.153V21.44a.649.649 0 0 0-.649-.649h-9.708a6.203 6.203 0 0 0-6.197 6.196v1.387c0 1.092.234 2.151.694 3.153v1.464a7.925 7.925 0 0 0 2.774 6.049v2.18l-1.208 1.27a.648.648 0 0 0-.177.497l-3.99 1.45c-.29.106-.559.248-.802.42l-.627-.313c1.865-.812 2.456-1.954 2.484-2.01a.648.648 0 0 0 0-.58c-.467-.935-.524-2.65-.57-4.027a33.684 33.684 0 0 0-.056-1.277c-.221-3.111-2.586-5.457-5.501-5.457s-5.28 2.346-5.502 5.457c-.027.386-.041.819-.056 1.277-.046 1.378-.103 3.091-.57 4.027a.648.648 0 0 0 0 .58c.028.056.618 1.196 2.487 2.009l-1.74.87a2.715 2.715 0 0 0-1.51 2.441v4.792a.649.649 0 0 0 1.298 0v-4.792c0-.546.303-1.036.791-1.28l2.168-1.084.754.716a2.721 2.721 0 0 0 1.88.752c.676 0 1.353-.251 1.88-.752l.753-.716.707.353a3.415 3.415 0 0 0-.522 1.811v4.992a.649.649 0 0 0 1.298 0v-4.992c0-.89.562-1.693 1.399-1.997l4.207-1.53 1.751 2.627a1.337 1.337 0 0 0 1.118.598c.355 0 .694-.14.948-.393l1.068-1.069v6.756a.649.649 0 0 0 1.298 0V45.89l1.068 1.069a1.336 1.336 0 0 0 1.081.386c.402-.04.76-.255.985-.59l1.751-2.628 4.207 1.53a2.132 2.132 0 0 1 1.4 1.997v4.992a.649.649 0 0 0 1.296 0v-4.992c0-.902-.358-1.747-.959-2.373l.16-.046c.162-.046.383-.109.604-.217l1.656 1.655v5.973a.649.649 0 0 0 1.297 0v-5.973l1.644-1.644c.088.044.18.082.276.11l2.68.765c.61.175 1.038.74 1.038 1.377v5.365a.649.649 0 0 0 1.297 0v-5.365a2.74 2.74 0 0 0-1.98-2.625zm-38.135-1.145c-1.213-.437-1.822-1.019-2.082-1.337.177-.463.292-.993.37-1.553.358.858.957 1.59 1.712 2.112v.778zm3.715 1.755a1.431 1.431 0 0 1-1.973 0l-.603-.573c.102-.19.158-.407.158-.634v-.69a4.824 4.824 0 0 0 2.864 0v.69c0 .227.055.443.157.634l-.603.573zm-.986-2.977a3.516 3.516 0 0 1-3.512-3.513.649.649 0 0 0-.755-.639l.005-.167c.015-.445.029-.867.054-1.228.083-1.165.549-2.24 1.312-3.024a4.009 4.009 0 0 1 2.896-1.228c1.098 0 2.126.436 2.896 1.228.763.785 1.228 1.859 1.311 3.024.026.361.04.782.055 1.228 0 .039.002.077.003.116-.705-1.087-1.795-1.888-3.203-2.34a8.14 8.14 0 0 0-2.467-.392.649.649 0 0 0-.449.198l-1.17 1.214a.649.649 0 0 0 .934.9l.973-1.01c.839.042 3.537.355 4.586 2.666a3.504 3.504 0 0 1-3.469 2.967zm2.729 1.224v-.774a4.797 4.797 0 0 0 1.712-2.114c.078.559.192 1.088.37 1.55-.26.314-.87.902-2.082 1.338zm6.24-10.522v-1.61a.649.649 0 0 0-.064-.281 6.221 6.221 0 0 1-.629-2.726v-1.387a4.905 4.905 0 0 1 4.9-4.899h9.06v6.286c0 .945-.212 1.862-.63 2.726a.649.649 0 0 0-.064.282v1.847a6.226 6.226 0 0 1-1.988 4.587c-.16.15-.326.29-.498.422l-.011.008a6.236 6.236 0 0 1-4.209 1.255c-3.29-.213-5.866-3.072-5.866-6.51zm3.653 13.05c-.005.005-.015.015-.036.013a.041.041 0 0 1-.033-.02l-2.017-3.025.649-.682 3.06 2.091-1.623 1.623zm2.634-2.503l-3.512-2.4v-1.211a7.302 7.302 0 0 0 3.519.885c1.24 0 2.433-.296 3.505-.86v1.186l-3.512 2.4zm2.703 2.496a.041.041 0 0 1-.032.02c-.022.003-.032-.008-.037-.013l-1.623-1.623 3.06-2.091.65.682-2.018 3.025zm11.843-.547l-1.471-1.471a1.78 1.78 0 0 0 .04-.386v-.273a4.548 4.548 0 0 0 1.433.229 4.81 4.81 0 0 0 1.43-.217v.262c0 .129.017.256.047.378l-1.479 1.478zm2.446-4.19a3.486 3.486 0 0 1-2.554.99c-1.877-.056-3.404-1.71-3.404-3.685v-1.213c0-.1-.023-.2-.068-.29l-.4-.8a2.136 2.136 0 0 1-.225-.951v-.039a2.822 2.822 0 0 1 2.819-2.819h5.592v2.694c0 .435-.103.871-.297 1.26l-.328.655a.648.648 0 0 0-.068.29v1.387c0 .959-.379 1.854-1.067 2.521z" fill="#222"/></svg>