<svg xmlns="http://www.w3.org/2000/svg" viewBox="0 0 512 512"><path d="M440.649 295.357c16.983 16.582 34.91 32.183 50.142 50.436 6.729 8.112 13.1 16.483 17.972 25.897 6.906 13.382.651 28.108-11.348 28.907l-74.59-.034c-19.237 1.597-34.584-6.148-47.488-19.302-10.328-10.519-19.891-21.714-29.821-32.588-4.071-4.444-8.332-8.626-13.422-11.932-10.183-6.609-19.021-4.585-24.84 6.035-5.927 10.801-7.27 22.762-7.853 34.8-.799 17.564-6.108 22.181-23.751 22.985-37.705 1.779-73.49-3.926-106.732-22.947-29.307-16.768-52.034-40.44-71.815-67.24C58.588 258.19 29.094 200.848 2.586 141.9c-5.967-13.28-1.604-20.41 13.05-20.663 24.334-.472 48.663-.439 73.025-.033 9.89.145 16.437 5.817 20.256 15.16 13.165 32.37 29.274 63.169 49.494 91.716 5.385 7.6 10.876 15.2 18.695 20.55 8.65 5.923 15.236 3.96 19.305-5.676 2.582-6.11 3.712-12.69 4.294-19.234 1.928-22.513 2.182-44.988-1.199-67.422-2.076-14-9.962-23.065-23.933-25.714-7.13-1.35-6.068-4.004-2.616-8.073 5.996-7.018 11.635-11.387 22.875-11.387h84.298c13.27 2.62 16.218 8.581 18.035 21.934l.072 93.638c-.145 5.17 2.582 20.51 11.893 23.931 7.453 2.436 12.365-3.526 16.836-8.251 20.183-21.422 34.588-46.737 47.457-72.951 5.711-11.527 10.622-23.498 15.38-35.458 3.527-8.876 9.06-13.243 19.057-13.05l81.132.073c2.405 0 4.84.036 7.17.434 13.67 2.33 17.417 8.211 13.195 21.561-6.654 20.946-19.598 38.4-32.255 55.936-13.53 18.721-28 36.802-41.418 55.634-12.328 17.197-11.348 25.866 3.965 40.802z" fill="#ffc224"/></svg>