<svg xmlns="http://www.w3.org/2000/svg" viewBox="0 0 512 512"><path d="M492.044 106.769c-18.482-21.97-52.604-30.932-117.77-30.932H137.72c-66.657 0-101.357 9.54-119.77 32.93C0 131.572 0 165.174 0 211.681v88.64c0 90.097 21.3 135.842 137.721 135.842h236.554c56.512 0 87.826-7.908 108.085-27.296C503.136 388.985 512 356.522 512 300.32v-88.64c0-49.045-1.389-82.845-19.956-104.912zm-163.338 161.47l-107.418 56.14a16.501 16.501 0 0 1-7.65 1.877 16.511 16.511 0 0 1-16.516-16.516V197.82a16.515 16.515 0 0 1 24.128-14.656l107.418 55.778a16.516 16.516 0 0 1 .038 29.296z" fill="#ffc224"/></svg>